{
    "asset" : {
        "generator" : "Khronos glTF Blender I/O v1.5.17",
        "version" : "2.0"
    },
    "extensionsUsed" : [
        "KHR_materials_clearcoat",
        "KHR_texture_transform"
    ],
    "extensionsRequired" : [
        "KHR_texture_transform"
    ],
    "scene" : 0,
    "scenes" : [
        {
            "name" : "Scene",
            "nodes" : [
                0,
                1,
                2,
                3,
                4,
                5,
                6
            ]
        }
    ],
    "nodes" : [
        {
            "name" : "Light",
            "rotation" : [
                0.39703381061553955,
                0.29896074533462524,
                -0.03846888616681099,
                0.8668949007987976
            ],
            "translation" : [
                0.13400721549987793,
                0.04602593183517456,
                -0.37889784574508667
            ]
        },
        {
            "name" : "Camera",
            "rotation" : [
                -0.02158595435321331,
                -0.8161712288856506,
                0.5765706300735474,
                0.03106212057173252
            ],
            "translation" : [
                0.009963393211364746,
                0.33340662717819214,
                -0.6619492173194885
            ]
        },
        {
            "name" : "Point",
            "translation" : [
                -0.048442304134368896,
                0.053623102605342865,
                -0.3300343155860901
            ]
        },
        {
            "name" : "Point.001",
            "translation" : [
                0.07211393117904663,
                0.0033980864100158215,
                0.054086603224277496
            ]
        },
        {
            "name" : "Point.002",
            "translation" : [
                0.34453877806663513,
                0.03875727951526642,
                -0.02798539400100708
            ]
        },
        {
            "mesh" : 0,
            "name" : "hookSTL-right.002",
            "translation" : [
                0.05319567024707794,
                0.03720478340983391,
                -0.0018044929020106792
            ]
        },
        {
            "name" : "Point.003",
            "translation" : [
                -0.18660204112529755,
                0.024531839415431023,
                0.00025978556368499994
            ]
        }
    ],
    "materials" : [
        {
            "doubleSided" : true,
            "extensions" : {
                "KHR_materials_clearcoat" : {
                    "clearcoatFactor" : 0.12909090518951416,
                    "clearcoatRoughnessFactor" : 0
                }
            },
            "name" : "carbon",
            "normalTexture" : {
                "extensions" : {
                    "KHR_texture_transform" : {
                        "offset" : [
                            0,
                            -2
                        ],
                        "scale" : [
                            3,
                            3
                        ]
                    }
                },
                "index" : 0
            },
            "pbrMetallicRoughness" : {
                "baseColorTexture" : {
                    "extensions" : {
                        "KHR_texture_transform" : {
                            "offset" : [
                                0,
                                -2
                            ],
                            "scale" : [
                                3,
                                3
                            ]
                        }
                    },
                    "index" : 1
                },
                "metallicFactor" : 0.16727274656295776,
                "roughnessFactor" : 0.5090909004211426
            }
        },
        {
            "doubleSided" : true,
            "name" : "Material.003",
            "pbrMetallicRoughness" : {
                "baseColorFactor" : [
                    0,
                    0,
                    0,
                    1
                ],
                "metallicFactor" : 0,
                "roughnessFactor" : 0.7520661354064941
            }
        }
    ],
    "meshes" : [
        {
            "name" : "hookSTL",
            "primitives" : [
                {
                    "attributes" : {
                        "POSITION" : 0,
                        "NORMAL" : 1,
                        "TEXCOORD_0" : 2
                    },
                    "indices" : 3,
                    "material" : 0
                },
                {
                    "attributes" : {
                        "POSITION" : 4,
                        "NORMAL" : 5,
                        "TEXCOORD_0" : 6
                    },
                    "indices" : 7,
                    "material" : 1
                }
            ]
        }
    ],
    "textures" : [
        {
            "sampler" : 0,
            "source" : 0
        },
        {
            "sampler" : 0,
            "source" : 1
        }
    ],
    "images" : [
        {
            "bufferView" : 4,
            "mimeType" : "image/png",
            "name" : "TexturesCom_Plastic_CarbonFiber_1K_normal"
        },
        {
            "bufferView" : 5,
            "mimeType" : "image/png",
            "name" : "TexturesCom_Plastic_CarbonFiber_1K_albedo"
        }
    ],
    "accessors" : [
        {
            "bufferView" : 0,
            "componentType" : 5126,
            "count" : 980,
            "max" : [
                0.129922553896904,
                0.07688594609498978,
                0.09080295264720917
            ],
            "min" : [
                -0.13007265329360962,
                -0.03650841489434242,
                -0.10800565779209137
            ],
            "type" : "VEC3"
        },
        {
            "bufferView" : 1,
            "componentType" : 5126,
            "count" : 980,
            "type" : "VEC3"
        },
        {
            "bufferView" : 2,
            "componentType" : 5126,
            "count" : 980,
            "type" : "VEC2"
        },
        {
            "bufferView" : 3,
            "componentType" : 5123,
            "count" : 2844,
            "type" : "SCALAR"
        },
        {
            "bufferView" : 6,
            "componentType" : 5126,
            "count" : 2058,
            "max" : [
                0.129922553896904,
                0.07688594609498978,
                0.09080295264720917
            ],
            "min" : [
                -0.13007265329360962,
                -0.03650841489434242,
                -0.10800565779209137
            ],
            "type" : "VEC3"
        },
        {
            "bufferView" : 7,
            "componentType" : 5126,
            "count" : 2058,
            "type" : "VEC3"
        },
        {
            "bufferView" : 8,
            "componentType" : 5126,
            "count" : 2058,
            "type" : "VEC2"
        },
        {
            "bufferView" : 9,
            "componentType" : 5123,
            "count" : 3216,
            "type" : "SCALAR"
        }
    ],
    "bufferViews" : [
        {
            "buffer" : 0,
            "byteLength" : 11760,
            "byteOffset" : 0
        },
        {
            "buffer" : 0,
            "byteLength" : 11760,
            "byteOffset" : 11760
        },
        {
            "buffer" : 0,
            "byteLength" : 7840,
            "byteOffset" : 23520
        },
        {
            "buffer" : 0,
            "byteLength" : 5688,
            "byteOffset" : 31360
        },
        {
            "buffer" : 0,
            "byteLength" : 927852,
            "byteOffset" : 37048
        },
        {
            "buffer" : 0,
            "byteLength" : 523800,
            "byteOffset" : 964900
        },
        {
            "buffer" : 0,
            "byteLength" : 24696,
            "byteOffset" : 1488700
        },
        {
            "buffer" : 0,
            "byteLength" : 24696,
            "byteOffset" : 1513396
        },
        {
            "buffer" : 0,
            "byteLength" : 16464,
            "byteOffset" : 1538092
        },
        {
            "buffer" : 0,
            "byteLength" : 6432,
            "byteOffset" : 1554556
        }
    ],
    "samplers" : [
        {
            "magFilter" : 9729,
            "minFilter" : 9987
        }
    ],
    "buffers" : [
        {
            "byteLength" : 1560988,
            "uri" : "data:application/octet-stream;base64,"
        }
    ]
}
